<?xml version="1.0" encoding="UTF-8"?>
<svg width="677px" height="489px" viewBox="0 0 677 489" version="1.1" xmlns="http://www.w3.org/2000/svg" xmlns:xlink="http://www.w3.org/1999/xlink">
    <!-- Generator: Sketch 57.1 (83088) - https://sketch.com -->
    <title>国内地图打点</title>
    <desc>Created with Sketch.</desc>
    <g id="国内地图打点" stroke="none" stroke-width="1" fill="none" fill-rule="evenodd">
        <circle id="椭圆形备份-2" fill="#BA7EE8" cx="154" cy="129" r="3"></circle>
        <circle id="椭圆形备份-22" fill="#BA7EE8" cx="419" cy="245" r="3"></circle>
        <circle id="椭圆形备份-68" fill="#BA7EE8" cx="456" cy="266" r="3"></circle>
        <circle id="椭圆形备份-68" fill="#BA7EE8" cx="456" cy="266" r="3"></circle>
        <circle id="椭圆形备份-27" fill="#BA7EE8" cx="391" cy="255" r="3"></circle>
        <circle id="椭圆形备份-79" fill="#BA7EE8" cx="352" cy="297" r="3"></circle>
        <circle id="椭圆形备份-80" fill="#BA7EE8" cx="391" cy="350" r="3"></circle>
        <circle id="椭圆形备份-108" fill="#BA7EE8" cx="325" cy="370" r="3"></circle>
        <circle id="椭圆形备份-81" fill="#BA7EE8" cx="419" cy="329" r="3"></circle>
        <circle id="椭圆形备份-83" fill="#BA7EE8" cx="466" cy="382" r="3"></circle>
        <circle id="椭圆形备份-84" fill="#BA7EE8" cx="400" cy="382" r="3"></circle>
        <circle id="椭圆形备份-25" fill="#BA7EE8" cx="419" cy="171" r="3"></circle>
        <circle id="椭圆形备份-34" fill="#BA7EE8" cx="485" cy="171" r="3"></circle>
        <circle id="椭圆形备份-138" fill="#BA7EE8" cx="343" cy="213" r="3"></circle>
        <circle id="椭圆形备份-47" fill="#BA7EE8" cx="570" cy="119" r="3"></circle>
        <circle id="椭圆形备份-48" fill="#BA7EE8" cx="608" cy="108" r="3"></circle>
        <circle id="椭圆形备份-52" fill="#BA7EE8" cx="617" cy="98" r="3"></circle>
        <circle id="椭圆形备份-35" fill="#BA7EE8" cx="495" cy="192" r="3"></circle>
        <circle id="紫色" fill="#BA7EE8" cx="495" cy="361" r="3"></circle>
        <circle id="紫色" fill="#BA7EE8" cx="513" cy="318" r="3"></circle>
        <circle id="紫色" fill="#BA7EE8" cx="494" cy="318" r="3"></circle>
        <circle id="紫色" fill="#BA7EE8" cx="485" cy="287" r="3"></circle>
        <circle id="紫色" fill="#BA7EE8" cx="409" cy="287" r="3"></circle>
        <circle id="紫色" fill="#BA7EE8" cx="362" cy="350" r="3"></circle>
        <circle id="紫色" fill="#BA7EE8" cx="315" cy="329" r="3"></circle>
        <circle id="紫色" fill="#BA7EE8" cx="343" cy="266" r="3"></circle>
        <circle id="紫色" fill="#BA7EE8" cx="315" cy="287" r="3"></circle>
        <circle id="椭圆形" fill="#00A6FF" cx="145" cy="129" r="3"></circle>
        <circle id="椭圆形备份-3" fill="#00A6FF" cx="164" cy="87" r="3"></circle>
        <circle id="椭圆形备份-4" fill="#00A6FF" cx="211" cy="150" r="3"></circle>
        <circle id="椭圆形备份-4" fill="#00A6FF" cx="239" cy="182" r="3"></circle>
        <circle id="椭圆形备份-4" fill="#00A6FF" cx="268" cy="266" r="3"></circle>
        <circle id="椭圆形备份-7" fill="#00A6FF" cx="315" cy="224" r="3"></circle>
        <circle id="椭圆形备份-8" fill="#00A6FF" cx="324" cy="203" r="3"></circle>
        <circle id="椭圆形备份-9" fill="#00A6FF" cx="362" cy="203" r="3"></circle>
        <circle id="椭圆形备份-10" fill="#00A6FF" cx="353" cy="224" r="3"></circle>
        <circle id="椭圆形备份-11" fill="#00A6FF" cx="353" cy="234" r="3"></circle>
        <circle id="椭圆形备份-11" fill="#00A6FF" cx="475" cy="308" r="3"></circle>
        <circle id="椭圆形备份-11" fill="#00A6FF" cx="334" cy="328" r="3"></circle>
        <circle id="椭圆形备份-11" fill="#00A6FF" cx="372" cy="266" r="3"></circle>
        <circle id="椭圆形备份-11" fill="#00A6FF" cx="457" cy="150" r="3"></circle>
        <circle id="椭圆形备份-11" fill="#00A6FF" cx="570" cy="45" r="3"></circle>
        <circle id="椭圆形备份-11" fill="#00A6FF" cx="164" cy="308" r="3"></circle>
        <circle id="椭圆形备份-11" fill="#00A6FF" cx="372" cy="286" r="3"></circle>
        <circle id="椭圆形备份-11" fill="#00A6FF" cx="362" cy="286" r="3"></circle>
        <circle id="椭圆形备份-12" fill="#00A6FF" cx="372" cy="234" r="3"></circle>
        <circle id="椭圆形备份-13" fill="#00A6FF" cx="334" cy="245" r="3"></circle>
        <circle id="椭圆形备份-14" fill="#00A6FF" cx="306" cy="245" r="3"></circle>
        <circle id="椭圆形备份-15" fill="#00A6FF" cx="400" cy="224" r="3"></circle>
        <circle id="椭圆形备份-16" fill="#00A6FF" cx="410" cy="203" r="3"></circle>
        <circle id="椭圆形备份-23" fill="#00A6FF" cx="391" cy="171" r="3"></circle>
        <circle id="椭圆形备份-24" fill="#00A6FF" cx="419" cy="160" r="3"></circle>
        <circle id="椭圆形备份-26" fill="#00A6FF" cx="410" cy="171" r="3"></circle>
        <circle id="椭圆形备份-19" fill="#00A6FF" cx="428" cy="224" r="3"></circle>
        <circle id="椭圆形备份-31" fill="#00A6FF" cx="456" cy="224" r="3"></circle>
        <circle id="椭圆形备份-32" fill="#00A6FF" cx="485" cy="234" r="3"></circle>
        <circle id="椭圆形备份-33" fill="#00A6FF" cx="485" cy="213" r="3"></circle>
        <circle id="椭圆形备份-36" fill="#00A6FF" cx="485" cy="192" r="3"></circle>
        <circle id="椭圆形备份-37" fill="#00A6FF" cx="466" cy="182" r="3"></circle>
        <circle id="椭圆形备份-38" fill="#00A6FF" cx="476" cy="160" r="3"></circle>
        <circle id="椭圆形备份-39" fill="#00A6FF" cx="447" cy="161" r="3"></circle>
        <circle id="椭圆形备份-41" fill="#00A6FF" cx="542" cy="150" r="3"></circle>
        <circle id="椭圆形备份-42" fill="#00A6FF" cx="542" cy="171" r="3"></circle>
        <path d="M570,143 C571.656854,143 573,141.656854 573,140 C573,138.343146 571.656854,137 570,137 C568.343146,137 567,138.343146 567,140 C567,141.656854 568.343146,143 570,143 Z" id="椭圆形备份-43" fill="#00A6FF"></path>
        <circle id="椭圆形备份-44" fill="#00A6FF" cx="570" cy="150" r="3"></circle>
        <circle id="椭圆形备份-45" fill="#00A6FF" cx="589" cy="129" r="3"></circle>
        <circle id="椭圆形备份-46" fill="#00A6FF" cx="589" cy="108" r="3"></circle>
        <circle id="椭圆形备份-49" fill="#00A6FF" cx="598" cy="119" r="3"></circle>
        <circle id="椭圆形备份-53" fill="#00A6FF" cx="589" cy="97" r="3"></circle>
        <circle id="椭圆形备份-54" fill="#00A6FF" cx="570" cy="97" r="3"></circle>
        <circle id="椭圆形备份-56" fill="#00A6FF" cx="561" cy="87" r="3"></circle>
        <circle id="椭圆形备份-57" fill="#00A6FF" cx="542" cy="108" r="3"></circle>
        <circle id="椭圆形备份-58" fill="#00A6FF" cx="495" cy="224" r="3"></circle>
        <circle id="椭圆形备份-59" fill="#00A6FF" cx="485" cy="245" r="3"></circle>
        <circle id="椭圆形备份-60" fill="#00A6FF" cx="495" cy="235" r="3"></circle>
        <circle id="椭圆形备份-61" fill="#00A6FF" cx="504" cy="224" r="3"></circle>
        <circle id="椭圆形备份-62" fill="#00A6FF" cx="523" cy="213" r="3"></circle>
        <circle id="椭圆形备份-63" fill="#00A6FF" cx="523" cy="224" r="3"></circle>
        <circle id="椭圆形备份-64" fill="#00A6FF" cx="495" cy="255" r="3"></circle>
        <circle id="椭圆形备份-65" fill="#00A6FF" cx="495" cy="266" r="3"></circle>
        <circle id="椭圆形备份-69" fill="#00A6FF" cx="476" cy="266" r="3"></circle>
        <circle id="椭圆形备份-70" fill="#00A6FF" cx="476" cy="256" r="3"></circle>
        <circle id="椭圆形备份-71" fill="#00A6FF" cx="495" cy="287" r="3"></circle>
        <circle id="椭圆形备份-66" fill="#00A6FF" cx="513" cy="276" r="3"></circle>
        <circle id="椭圆形备份-67" fill="#00A6FF" cx="513" cy="297" r="3"></circle>
        <circle id="椭圆形备份-72" fill="#00A6FF" cx="504" cy="308" r="3"></circle>
        <circle id="椭圆形备份-73" fill="#00A6FF" cx="523" cy="319" r="3"></circle>
        <circle id="椭圆形备份-74" fill="#00A6FF" cx="533" cy="308" r="3"></circle>
        <circle id="椭圆形备份-75" fill="#00A6FF" cx="523" cy="308" r="3"></circle>
        <circle id="椭圆形备份-85" fill="#00A6FF" cx="523" cy="287" r="3"></circle>
        <circle id="椭圆形备份-86" fill="#00A6FF" cx="513" cy="287" r="3"></circle>
        <circle id="椭圆形备份-87" fill="#00A6FF" cx="513" cy="329" r="3"></circle>
        <circle id="椭圆形备份-88" fill="#00A6FF" cx="495" cy="340" r="3"></circle>
        <circle id="椭圆形备份-89" fill="#00A6FF" cx="476" cy="340" r="3"></circle>
        <circle id="椭圆形备份-90" fill="#00A6FF" cx="485" cy="350" r="3"></circle>
        <circle id="椭圆形备份-91" fill="#00A6FF" cx="476" cy="361" r="3"></circle>
        <circle id="椭圆形备份-92" fill="#00A6FF" cx="476" cy="371" r="3"></circle>
        <circle id="椭圆形备份-93" fill="#00A6FF" cx="437" cy="350" r="3"></circle>
        <circle id="椭圆形备份-94" fill="#00A6FF" cx="410" cy="371" r="3"></circle>
        <circle id="椭圆形备份-95" fill="#00A6FF" cx="400" cy="371" r="3"></circle>
        <circle id="椭圆形备份-116" fill="#00A6FF" cx="381" cy="382" r="3"></circle>
        <circle id="椭圆形备份-117" fill="#00A6FF" cx="381" cy="371" r="3"></circle>
        <circle id="椭圆形备份-118" fill="#00A6FF" cx="447" cy="382" r="3"></circle>
        <circle id="椭圆形备份-119" fill="#00A6FF" cx="447" cy="392" r="3"></circle>
        <circle id="椭圆形备份-120" fill="#00A6FF" cx="410" cy="413" r="3"></circle>
        <circle id="椭圆形备份-121" fill="#00A6FF" cx="410" cy="434" r="3"></circle>
        <circle id="椭圆形备份-122" fill="#00A6FF" cx="400" cy="423" r="3"></circle>
        <circle id="椭圆形备份-123" fill="#00A6FF" cx="410" cy="423" r="3"></circle>
        <circle id="椭圆形备份-96" fill="#00A6FF" cx="391" cy="361" r="3"></circle>
        <circle id="椭圆形备份-97" fill="#00A6FF" cx="372" cy="361" r="3"></circle>
        <circle id="椭圆形备份-97" fill="#00A6FF" cx="324" cy="318" r="3"></circle>
        <circle id="椭圆形备份-99" fill="#00A6FF" cx="343" cy="276" r="3"></circle>
        <circle id="椭圆形备份-100" fill="#00A6FF" cx="334" cy="298" r="3"></circle>
        <circle id="椭圆形备份-106" fill="#00A6FF" cx="324" cy="340" r="3"></circle>
        <circle id="椭圆形备份-107" fill="#00A6FF" cx="324" cy="350" r="3"></circle>
        <circle id="椭圆形备份-109" fill="#00A6FF" cx="315" cy="350" r="3"></circle>
        <circle id="椭圆形备份-110" fill="#00A6FF" cx="306" cy="350" r="3"></circle>
        <circle id="椭圆形备份-111" fill="#00A6FF" cx="306" cy="361" r="3"></circle>
        <circle id="椭圆形备份-112" fill="#00A6FF" cx="306" cy="371" r="3"></circle>
        <circle id="椭圆形备份-113" fill="#00A6FF" cx="315" cy="371" r="3"></circle>
        <circle id="椭圆形备份-115" fill="#00A6FF" cx="333" cy="361" r="3"></circle>
        <circle id="椭圆形备份-115" fill="#00A6FF" cx="315" cy="391" r="3"></circle>
        <circle id="椭圆形备份-102" fill="#00A6FF" cx="315" cy="318" r="3"></circle>
        <circle id="椭圆形备份-103" fill="#00A6FF" cx="296" cy="308" r="3"></circle>
        <circle id="椭圆形备份-104" fill="#00A6FF" cx="296" cy="318" r="3"></circle>
        <circle id="椭圆形备份-105" fill="#00A6FF" cx="315" cy="308" r="3"></circle>
        <circle id="椭圆形备份-98" fill="#00A6FF" cx="372" cy="372" r="3"></circle>
        <circle id="椭圆形备份-76" fill="#00A6FF" cx="523" cy="298" r="3"></circle>
        <circle id="椭圆形备份-77" fill="#00A6FF" cx="447" cy="297" r="3"></circle>
        <circle id="椭圆形备份-78" fill="#00A6FF" cx="419" cy="297" r="3"></circle>
        <circle id="椭圆形备份-55" fill="#00A6FF" cx="608" cy="77" r="3"></circle>
        <circle id="椭圆形备份-50" fill="#00A6FF" cx="598" cy="150" r="3"></circle>
        <circle id="椭圆形备份-51" fill="#00A6FF" cx="608" cy="129" r="3"></circle>
        <circle id="椭圆形备份-40" fill="#00A6FF" cx="438" cy="182" r="3"></circle>
        <circle id="椭圆形备份-21" fill="#00A6FF" cx="419" cy="234" r="3"></circle>
        <circle id="椭圆形备份-28" fill="#00A6FF" cx="419" cy="256" r="3"></circle>
        <circle id="椭圆形备份-29" fill="#00A6FF" cx="400" cy="276" r="3"></circle>
        <circle id="椭圆形备份-30" fill="#00A6FF" cx="419" cy="276" r="3"></circle>
        <circle id="椭圆形备份-20" fill="#00A6FF" cx="419" cy="224" r="3"></circle>
        <circle id="椭圆形备份-17" fill="#00A6FF" cx="353" cy="214" r="3"></circle>
        <circle id="椭圆形备份-18" fill="#00A6FF" cx="343" cy="224" r="3"></circle>
        <circle id="椭圆形备份-5" fill="#00A6FF" cx="107" cy="213" r="3"></circle>
        <circle id="椭圆形备份-6" fill="#00A6FF" cx="116" cy="213" r="3"></circle>
        <circle id="椭圆形备份" fill="#00A6FF" cx="154" cy="140" r="3"></circle>
        <circle id="椭圆形备份-141" fill="#7BD8AD" cx="504" cy="297" r="3"></circle>
        <circle id="椭圆形备份-141" fill="#7BD8AD" cx="504" cy="319" r="3"></circle>
        <circle id="椭圆形备份-142" fill="#7BD8AD" cx="495" cy="276" r="3"></circle>
        <circle id="椭圆形备份-125" fill="#7BD8AD" cx="409" cy="276" r="3"></circle>
        <circle id="椭圆形备份-127" fill="#7BD8AD" cx="372" cy="224" r="3"></circle>
        <circle id="椭圆形备份-127" fill="#7BD8AD" cx="116" cy="224" r="3"></circle>
        <circle id="椭圆形备份-128" fill="#7BD8AD" cx="400" cy="234" r="3"></circle>
        <circle id="椭圆形备份-129" fill="#7BD8AD" cx="343" cy="245" r="3"></circle>
        <circle id="椭圆形备份-126" fill="#7BD8AD" cx="362" cy="234" r="3"></circle>
        <circle id="椭圆形备份-124" fill="#7BD8AD" cx="334" cy="224" r="3"></circle>
        <circle id="椭圆形备份-125" fill="#7BD8AD" cx="362" cy="224" r="3"></circle>
        <circle id="椭圆形备份-125" fill="#7BD8AD" cx="428" cy="266" r="3"></circle>
        <circle id="椭圆形备份-125" fill="#7BD8AD" cx="428" cy="276" r="3"></circle>
        <circle id="椭圆形备份-125" fill="#7BD8AD" cx="504" cy="266" r="3"></circle>
        <circle id="椭圆形备份-125" fill="#7BD8AD" cx="514" cy="234" r="3"></circle>
        <circle id="椭圆形备份-125" fill="#7BD8AD" cx="476" cy="171" r="3"></circle>
        <circle id="椭圆形备份-125" fill="#7BD8AD" cx="476" cy="193" r="3"></circle>
        <circle id="椭圆形备份-125" fill="#7BD8AD" cx="504" cy="234" r="3"></circle>
        <circle id="椭圆形备份-125" fill="#7BD8AD" cx="523" cy="276" r="3"></circle>
        <circle id="椭圆形备份-140" fill="#7BD8AD" cx="532" cy="298" r="3"></circle>
        <circle id="椭圆形备份-140" fill="#7BD8AD" cx="485" cy="298" r="3"></circle>
        <circle id="椭圆形备份-140" fill="#7BD8AD" cx="428" cy="298" r="3"></circle>
        <circle id="椭圆形备份-140" fill="#7BD8AD" cx="419" cy="308" r="3"></circle>
        <circle id="椭圆形备份-140" fill="#7BD8AD" cx="514" cy="129" r="3"></circle>
        <circle id="椭圆形备份-140" fill="#7BD8AD" cx="551" cy="35" r="3"></circle>
        <circle id="椭圆形备份-140" fill="#7BD8AD" cx="419" cy="182" r="3"></circle>
        <circle id="椭圆形备份-140" fill="#7BD8AD" cx="410" cy="182" r="3"></circle>
        <circle id="椭圆形备份-140" fill="#7BD8AD" cx="400" cy="182" r="3"></circle>
        <circle id="椭圆形备份-140" fill="#7BD8AD" cx="542" cy="297" r="3"></circle>
        <circle id="椭圆形备份-140" fill="#7BD8AD" cx="504" cy="340" r="3"></circle>
        <circle id="椭圆形备份-140" fill="#7BD8AD" cx="485" cy="340" r="3"></circle>
        <circle id="椭圆形备份-140" fill="#7BD8AD" cx="485" cy="361" r="3"></circle>
        <circle id="椭圆形备份-140" fill="#7BD8AD" cx="457" cy="350" r="3"></circle>
        <circle id="椭圆形备份-140" fill="#7BD8AD" cx="447" cy="360" r="3"></circle>
        <circle id="椭圆形备份-140" fill="#7BD8AD" cx="438" cy="381" r="3"></circle>
        <circle id="椭圆形备份-140" fill="#7BD8AD" cx="400" cy="361" r="3"></circle>
        <circle id="椭圆形备份-140" fill="#7BD8AD" cx="419" cy="413" r="3"></circle>
        <circle id="椭圆形备份-140" fill="#7BD8AD" cx="391" cy="371" r="3"></circle>
        <circle id="椭圆形备份-140" fill="#7BD8AD" cx="381" cy="361" r="3"></circle>
        <circle id="椭圆形备份-140" fill="#7BD8AD" cx="352" cy="361" r="3"></circle>
        <circle id="椭圆形备份-140" fill="#7BD8AD" cx="352" cy="350" r="3"></circle>
        <circle id="椭圆形备份-140" fill="#7BD8AD" cx="315" cy="340" r="3"></circle>
        <circle id="椭圆形备份-140" fill="#7BD8AD" cx="334" cy="350" r="3"></circle>
        <circle id="椭圆形备份-140" fill="#7BD8AD" cx="343" cy="297" r="3"></circle>
        <circle id="椭圆形备份-140" fill="#7BD8AD" cx="324" cy="297" r="3"></circle>
        <circle id="椭圆形备份-140" fill="#7BD8AD" cx="343" cy="308" r="3"></circle>
        <circle id="椭圆形备份-140" fill="#7BD8AD" cx="579" cy="140" r="3"></circle>
        <circle id="椭圆形备份-140" fill="#7BD8AD" cx="589" cy="140" r="3"></circle>
        <circle id="椭圆形备份-140" fill="#7BD8AD" cx="608" cy="140" r="3"></circle>
        <circle id="椭圆形备份-140" fill="#7BD8AD" cx="599" cy="129" r="3"></circle>
        <circle id="椭圆形备份-140" fill="#7BD8AD" cx="570" cy="35" r="3"></circle>
        <circle id="椭圆形备份-140" fill="#7BD8AD" cx="570" cy="160" r="3"></circle>
        <circle id="椭圆形备份-140" fill="#7BD8AD" cx="579" cy="108" r="3"></circle>
        <circle id="椭圆形备份-140" fill="#7BD8AD" cx="343" cy="318" r="3"></circle>
        <circle id="椭圆形备份-140" fill="#7BD8AD" cx="353" cy="329" r="3"></circle>
        <circle id="椭圆形备份-140" fill="#7BD8AD" cx="249" cy="193" r="3"></circle>
        <circle id="椭圆形备份-140" fill="#7BD8AD" cx="287" cy="213" r="3"></circle>
        <circle id="椭圆形备份-140" fill="#7BD8AD" cx="372" cy="318" r="3"></circle>
        <circle id="椭圆形备份-140" fill="#7BD8AD" cx="372" cy="340" r="3"></circle>
        <circle id="椭圆形备份-140" fill="#7BD8AD" cx="324" cy="308" r="3"></circle>
        <circle id="深蓝色" fill="#3264C1" cx="334" cy="234" r="3"></circle>
        <circle id="深蓝色" fill="#3264C1" cx="353" cy="244" r="3"></circle>
        <circle id="深蓝色" fill="#3264C1" cx="362" cy="214" r="3"></circle>
        <circle id="深蓝色" fill="#3264C1" cx="353" cy="255" r="3"></circle>
        <circle id="深蓝色" fill="#3264C1" cx="334" cy="287" r="3"></circle>
        <circle id="深蓝色" fill="#3264C1" cx="324" cy="287" r="3"></circle>
        <circle id="深蓝色" fill="#3264C1" cx="163" cy="129" r="3"></circle>
        <circle id="深蓝色" fill="#3264C1" cx="163" cy="139" r="3"></circle>
        <circle id="深蓝色" fill="#3264C1" cx="220" cy="150" r="3"></circle>
        <circle id="深蓝色" fill="#3264C1" cx="277" cy="266" r="3"></circle>
        <circle id="深蓝色" fill="#3264C1" cx="513" cy="308" r="3"></circle>
        <circle id="深蓝色" fill="#3264C1" cx="475" cy="318" r="3"></circle>
        <circle id="深蓝色" fill="#3264C1" cx="447" cy="308" r="3"></circle>
        <circle id="深蓝色" fill="#3264C1" cx="437" cy="329" r="3"></circle>
        <circle id="深蓝色" fill="#3264C1" cx="533" cy="287" r="3"></circle>
        <circle id="深蓝色" fill="#3264C1" cx="504" cy="255" r="3"></circle>
        <circle id="深蓝色" fill="#3264C1" cx="504" cy="245" r="3"></circle>
        <circle id="深蓝色" fill="#3264C1" cx="495" cy="245" r="3"></circle>
        <circle id="深蓝色" fill="#3264C1" cx="485" cy="277" r="3"></circle>
        <circle id="深蓝色" fill="#3264C1" cx="504" cy="329" r="3"></circle>
        <circle id="深蓝色" fill="#3264C1" cx="485" cy="329" r="3"></circle>
        <circle id="深蓝色" fill="#3264C1" cx="476" cy="350" r="3"></circle>
        <circle id="深蓝色" fill="#3264C1" cx="466" cy="360" r="3"></circle>
        <circle id="深蓝色" fill="#3264C1" cx="457" cy="382" r="3"></circle>
        <circle id="深蓝色" fill="#3264C1" cx="457" cy="370" r="3"></circle>
        <circle id="深蓝色" fill="#3264C1" cx="504" cy="350" r="3"></circle>
        <circle id="深蓝色" fill="#3264C1" cx="391" cy="382" r="3"></circle>
        <circle id="深蓝色" fill="#3264C1" cx="372" cy="381" r="3"></circle>
        <circle id="深蓝色" fill="#3264C1" cx="324" cy="360" r="3"></circle>
        <circle id="深蓝色" fill="#3264C1" cx="296" cy="381" r="3"></circle>
        <circle id="深蓝色" fill="#3264C1" cx="343" cy="340" r="3"></circle>
        <circle id="深蓝色" fill="#3264C1" cx="352" cy="318" r="3"></circle>
        <circle id="深蓝色" fill="#3264C1" cx="305" cy="318" r="3"></circle>
        <circle id="深蓝色" fill="#3264C1" cx="297" cy="361" r="3"></circle>
        <circle id="深蓝色" fill="#3264C1" cx="315" cy="360" r="3"></circle>
        <circle id="深蓝色" fill="#3264C1" cx="334" cy="308" r="3"></circle>
        <circle id="深蓝色" fill="#3264C1" cx="343" cy="287" r="3"></circle>
        <circle id="深蓝色" fill="#3264C1" cx="315" cy="297" r="3"></circle>
        <circle id="深蓝色" fill="#3264C1" cx="352" cy="308" r="3"></circle>
        <circle id="深蓝色" fill="#3264C1" cx="343" cy="328" r="3"></circle>
        <circle id="深蓝色" fill="#3264C1" cx="381" cy="308" r="3"></circle>
        <circle id="深蓝色" fill="#3264C1" cx="504" cy="98" r="3"></circle>
        <circle id="深蓝色" fill="#3264C1" cx="504" cy="129" r="3"></circle>
        <circle id="深蓝色" fill="#3264C1" cx="561" cy="45" r="3"></circle>
        <circle id="深蓝色" fill="#3264C1" cx="410" cy="360" r="3"></circle>
        <circle id="深蓝色" fill="#3264C1" cx="362" cy="361" r="3"></circle>
        <circle id="深蓝色" fill="#3264C1" cx="372" cy="350" r="3"></circle>
        <circle id="深蓝色" fill="#3264C1" cx="353" cy="371" r="3"></circle>
        <circle id="深蓝色" fill="#3264C1" cx="589" cy="119" r="3"></circle>
        <circle id="深蓝色" fill="#3264C1" cx="608" cy="118" r="3"></circle>
        <circle id="深蓝色" fill="#3264C1" cx="627" cy="118" r="3"></circle>
        <circle id="深蓝色" fill="#3264C1" cx="617" cy="118" r="3"></circle>
        <circle id="深蓝色" fill="#3264C1" cx="617" cy="140" r="3"></circle>
        <circle id="深蓝色" fill="#3264C1" cx="598" cy="140" r="3"></circle>
        <circle id="深蓝色" fill="#3264C1" cx="579" cy="119" r="3"></circle>
        <circle id="深蓝色" fill="#3264C1" cx="561" cy="129" r="3"></circle>
        <circle id="深蓝色" fill="#3264C1" cx="579" cy="150" r="3"></circle>
        <circle id="深蓝色" fill="#3264C1" cx="532" cy="161" r="3"></circle>
        <circle id="深蓝色" fill="#3264C1" cx="447" cy="245" r="3"></circle>
        <circle id="深蓝色" fill="#3264C1" cx="495" cy="297" r="3"></circle>
        <circle id="深蓝色" fill="#3264C1" cx="428" cy="307" r="3"></circle>
        <circle id="深蓝色" fill="#3264C1" cx="154" cy="297" r="3"></circle>
        <circle id="深蓝色" fill="#3264C1" cx="400" cy="434" r="3"></circle>
        <circle id="椭圆形备份-131" fill="#3264C1" cx="419" cy="266" r="3"></circle>
        <circle id="椭圆形备份-139" fill="#3264C1" cx="410" cy="256" r="3"></circle>
        <circle id="椭圆形备份-132" fill="#3264C1" cx="325" cy="245" r="3"></circle>
        <circle id="椭圆形备份-133" fill="#3264C1" cx="315" cy="234" r="3"></circle>
        <circle id="椭圆形备份-134" fill="#3264C1" cx="334" cy="213" r="3"></circle>
        <circle id="椭圆形备份-135" fill="#3264C1" cx="448" cy="182" r="3"></circle>
        <circle id="椭圆形备份-136" fill="#3264C1" cx="457" cy="193" r="3"></circle>
        <circle id="椭圆形备份-136" fill="#3264C1" cx="476" cy="213" r="3"></circle>
        <circle id="椭圆形备份-136" fill="#3264C1" cx="504" cy="276" r="3"></circle>
        <circle id="椭圆形备份-136" fill="#3264C1" cx="504" cy="287" r="3"></circle>
        <circle id="椭圆形备份-137" fill="#3264C1" cx="476" cy="182" r="3"></circle>
    </g>
</svg>